<svg width="52" height="51" viewBox="0 0 52 51" fill="none" xmlns="http://www.w3.org/2000/svg">
<g clip-path="url(#clip0_17_86)">
<path d="M22.4063 21.2667C28.307 21.2667 33.0905 16.558 33.0905 10.7495C33.0905 4.94102 28.307 0.2323 22.4063 0.2323C16.5056 0.2323 11.7222 4.94102 11.7222 10.7495C11.7222 16.558 16.5056 21.2667 22.4063 21.2667Z" fill="white"/>
<path d="M26.7499 39.8334C26.7499 33.1481 31.6738 27.6071 38.1444 26.5004C36.3945 24.2837 34.2125 22.4423 31.7289 21.1188C29.242 23.2864 25.9855 24.612 22.4062 24.612C18.8427 24.612 15.5978 23.2979 13.1173 21.1511C6.64564 24.6276 2.22461 31.6027 2.22461 39.6438C2.22461 40.91 2.34001 42.1459 2.54962 43.3506H27.2348C26.9288 42.2272 26.7499 41.0527 26.7499 39.8334Z" fill="white"/>
<path d="M40.5125 29.4121C34.6665 29.4121 29.9258 34.0788 29.9258 39.8335C29.9258 45.5881 34.6665 50.2548 40.5125 50.2548C46.3586 50.2548 51.0993 45.5881 51.0993 39.8335C51.0993 34.0788 46.3586 29.4121 40.5125 29.4121ZM46.5248 43.5414L44.2793 45.7517L40.5125 42.0438L36.7458 45.7528L34.5003 43.5414L38.2671 39.8335L34.5003 36.1255L36.7458 33.9152L40.5125 37.6231L44.2793 33.9152L46.5248 36.1266L42.758 39.8335L46.5248 43.5414Z" fill="white"/>
</g>
<defs>
<clipPath id="clip0_17_86">
<rect width="50.8165" height="50.0225" fill="white" transform="translate(0.283203 0.2323)"/>
</clipPath>
</defs>
</svg>
