<svg width="70" height="70" viewBox="0 0 70 70" fill="none" xmlns="http://www.w3.org/2000/svg">
<path d="M26.25 26.25C26.25 21.2917 30.0417 17.5 35 17.5C39.9583 17.5 43.75 21.2917 43.75 26.25C43.75 31.2083 39.9583 35 35 35C30.0417 35 26.25 31.2083 26.25 26.25ZM35 40.8333C21.5833 40.8333 17.5 50.4583 17.5 50.4583V55.4167H52.5V50.4583C52.5 50.4583 48.4167 40.8333 35 40.8333Z" fill="white"/>
<path d="M53.9582 32.0833C57.9852 32.0833 61.2498 28.8187 61.2498 24.7917C61.2498 20.7646 57.9852 17.5 53.9582 17.5C49.9311 17.5 46.6665 20.7646 46.6665 24.7917C46.6665 28.8187 49.9311 32.0833 53.9582 32.0833Z" fill="white"/>
<path d="M53.9582 37.9166C50.4582 37.9166 47.8332 38.7916 45.7915 40.25C52.4998 43.4583 55.1248 49 55.1248 49.5833V49.875H67.0832V46.0833C67.0832 45.7916 63.8748 37.9166 53.9582 37.9166Z" fill="white"/>
<path d="M53.9582 32.0833C57.9852 32.0833 61.2498 28.8187 61.2498 24.7917C61.2498 20.7646 57.9852 17.5 53.9582 17.5C49.9311 17.5 46.6665 20.7646 46.6665 24.7917C46.6665 28.8187 49.9311 32.0833 53.9582 32.0833Z" fill="white"/>
<path d="M53.9582 37.9166C50.4582 37.9166 47.8332 38.7916 45.7915 40.25C52.4998 43.4583 55.1248 49 55.1248 49.5833V49.875H67.0832V46.0833C67.0832 45.7916 63.8748 37.9166 53.9582 37.9166Z" fill="white"/>
<path d="M16.0417 32.0833C20.0687 32.0833 23.3333 28.8187 23.3333 24.7917C23.3333 20.7646 20.0687 17.5 16.0417 17.5C12.0146 17.5 8.75 20.7646 8.75 24.7917C8.75 28.8187 12.0146 32.0833 16.0417 32.0833Z" fill="white"/>
<path d="M16.0415 37.9166C19.5415 37.9166 22.1665 38.7916 24.2082 40.25C17.4998 43.4583 14.8748 49 14.8748 49.5833V49.875H2.9165V46.0833C2.9165 45.7916 6.12484 37.9166 16.0415 37.9166Z" fill="white"/>
</svg>
