<svg width="66" height="66" viewBox="0 0 66 66" fill="none" xmlns="http://www.w3.org/2000/svg">
<path d="M55.7881 18.076L50.3878 16.6614L42.8078 28.1559C42.5001 28.6242 42.0856 29.0128 41.5984 29.2897C41.1112 29.5665 40.5652 29.7238 40.0054 29.7484L43.0214 49.0009C43.1077 49.5549 43.0626 50.1213 42.8895 50.6545C42.7164 51.1878 42.4202 51.6728 42.0249 52.0703L41.2065 52.8888H59.5248V22.9158C59.5271 21.8088 59.1612 20.7326 58.4847 19.8564C57.8082 18.9802 56.8596 18.3539 55.7881 18.076Z" fill="white"/>
<path d="M25.6729 29.7484C25.113 29.7238 24.5671 29.5665 24.0798 29.2897C23.5926 29.0128 23.1781 28.6243 22.8704 28.1559L15.2904 16.6614L9.89005 18.076C8.81762 18.3535 7.86778 18.9794 7.1898 19.8555C6.51183 20.7315 6.14414 21.808 6.14453 22.9158V52.8888H24.4629L23.6445 52.0703C23.2492 51.6728 22.9531 51.1878 22.7799 50.6546C22.6068 50.1213 22.5616 49.5549 22.648 49.0009L25.6729 29.7484Z" fill="white"/>
<path d="M36.3933 27.5331L32.8346 22.7467L29.276 27.542L29.4984 28.3072L26.1621 49.5525L32.8346 56.225L39.5072 49.5525L36.1709 28.3072L36.3933 27.5331Z" fill="white"/>
<path d="M45.7073 9.51733L32.8389 16.7856L39.8391 26.1987L47.8521 14.0451L45.7073 9.51733Z" fill="white"/>
<path d="M17.8257 14.0451L25.8387 26.1987L32.8389 16.7856L19.9706 9.51733L17.8257 14.0451Z" fill="white"/>
</svg>
