<svg width="44" height="59" viewBox="0 0 44 59" fill="none" xmlns="http://www.w3.org/2000/svg">
<g clip-path="url(#clip0_17_91)">
<path d="M43.269 36.1809C43.269 48.2715 33.6553 58.0187 21.8308 58.0187C10.0063 58.0187 0.392578 48.2681 0.392578 36.2828C0.392578 29.6408 3.49888 24.1921 6.48572 21.1015C8.15723 19.2223 11.1117 20.411 11.1117 22.8676V32.5469C11.1117 36.5284 14.2347 39.8488 18.164 39.8986C22.1546 39.962 25.4038 36.6903 25.4038 32.6601C25.4038 22.6978 5.85262 21.7785 19.5809 1.27881C21.0883 -0.953658 24.5106 0.0595545 24.5106 2.75391C24.4101 14.4336 43.269 17.0034 43.269 36.1809Z" fill="white"/>
</g>
<defs>
<clipPath id="clip0_17_91">
<rect width="42.8764" height="57.9625" fill="white" transform="translate(0.392578 0.0563965)"/>
</clipPath>
</defs>
</svg>
