<svg width="51" height="52" viewBox="0 0 51 52" fill="none" xmlns="http://www.w3.org/2000/svg">
<path d="M48.5128 45.4159H43.8202C44.114 42.613 45.305 33.5534 49.148 28.4241C49.3465 28.1621 49.3623 27.8127 49.1877 27.5348C49.0209 27.2569 48.6954 27.1061 48.3778 27.1696C48.2746 27.1855 40.6759 28.6306 36.6582 35.8798C37.8016 29.2975 40.4615 21.1828 46.5992 16.6807C46.893 16.4584 47.0041 16.0694 46.8612 15.7279C46.7183 15.3865 46.361 15.1959 46.0037 15.2515C45.8608 15.2833 35.4037 17.1889 29.7821 28.8767C29.3295 27.1855 28.8055 25.5577 28.21 24.0174C29.5677 22.7152 31.1399 21.5877 32.974 20.7222C33.3155 20.5634 33.4901 20.1903 33.4028 19.8171C33.3155 19.4518 32.982 19.1977 32.6009 19.2136C32.5294 19.2136 30.0044 19.3407 26.6855 20.484H26.6776C20.9766 8.78037 12.5998 5.88224 12.2425 5.7552C11.9011 5.64404 11.5279 5.77108 11.3294 6.06486C11.1309 6.35864 11.1547 6.75565 11.385 7.02561C14.5054 10.686 16.9986 15.0768 18.8328 20.1426C12.8142 13.7906 5.89838 12.2661 5.07261 12.1073C5.07261 12.1073 5.02497 12.0914 5.00909 12.0914C4.96145 12.0755 4.90587 12.0676 4.85029 12.0676C4.80265 12.0676 4.75501 12.0914 4.70737 12.0993C4.69943 12.0993 4.68355 12.0993 4.67561 12.0993C4.58033 12.1231 4.49299 12.1628 4.41358 12.2105C4.41358 12.2105 4.40564 12.2184 4.3977 12.2264C4.19126 12.3693 4.05628 12.5916 4.05628 12.8616C4.05628 13.1474 4.20714 13.3935 4.42947 13.5285C4.45329 13.5444 4.46917 13.5603 4.49299 13.5762C9.64609 16.4187 13.4414 21.3019 15.7997 28.1065C14.6166 29.6151 13.5606 31.3699 12.703 33.4343C8.59006 28.2812 2.85733 27.2172 2.59531 27.1696C2.2777 27.1061 1.95216 27.2569 1.78542 27.5348C1.61074 27.8127 1.62662 28.1621 1.82512 28.4241C5.66812 33.5534 6.85913 42.613 7.15291 45.4159H2.46033C2.02362 45.4159 1.66632 45.7732 1.66632 46.2099C1.66632 46.6466 2.02362 47.0039 2.46033 47.0039H48.5128C48.9495 47.0039 49.3068 46.6466 49.3068 46.2099C49.3068 45.7732 48.9495 45.4159 48.5128 45.4159ZM14.8389 8.89947C17.6735 10.7416 21.9056 14.3861 25.1928 21.0478C23.9859 21.5559 22.7075 22.1912 21.4371 23.001C19.8888 17.6653 17.6735 12.941 14.8389 8.89947ZM18.3564 45.4159H11.9964C12.0678 41.5014 12.6554 38.2142 13.6082 35.4511C13.6161 35.4511 13.6161 35.4431 13.6161 35.4352C13.6638 35.3558 13.6955 35.2685 13.6955 35.1732C13.6955 35.1732 13.6955 35.1679 13.6955 35.1573C14.5928 32.6403 15.7758 30.5679 17.1256 28.8608C17.2527 28.7735 17.348 28.6544 17.4035 28.5115C18.5707 27.0822 19.857 25.923 21.1671 24.9781C21.1751 24.9781 21.1751 24.9702 21.1751 24.9702L21.6912 24.6049C23.0886 23.6521 24.502 22.9455 25.828 22.4135C26.3441 22.1991 26.8443 22.0244 27.3207 21.8656C27.813 21.7068 28.2894 21.5639 28.734 21.4527C28.3291 21.7624 27.94 22.0879 27.5668 22.4294C27.1381 22.8025 26.7252 23.2075 26.3361 23.6124C19.4044 30.9173 18.4755 42.2875 18.3484 45.4159H18.3564ZM24.5337 28.7576C25.2404 27.5507 26.0582 26.3835 26.9952 25.3037C27.6859 27.1934 28.2656 29.2022 28.742 31.2984C28.0671 33.0691 27.5033 35.0303 27.0904 37.2058C26.5346 34.1648 25.685 31.3381 24.5337 28.7576ZM34.2047 45.4159H27.8765C27.9559 39.8658 28.8531 35.3876 30.2109 31.7669H30.2188C30.2823 31.6557 30.33 31.5446 30.3459 31.4175C33.5616 23.1598 39.1911 19.4915 42.8277 17.9194C34.6494 26.6694 34.1889 41.692 34.2047 45.4159Z" fill="white"/>
</svg>
