<svg width="51" height="52" viewBox="0 0 51 52" fill="none" xmlns="http://www.w3.org/2000/svg">
<g clip-path="url(#clip0_17_101)">
<path d="M35.2704 41.6786C36.9971 41.6786 38.3969 40.2566 38.3969 38.5026C38.3969 36.7485 36.9971 35.3265 35.2704 35.3265C33.5438 35.3265 32.144 36.7485 32.144 38.5026C32.144 40.2566 33.5438 41.6786 35.2704 41.6786Z" fill="white"/>
<path d="M47.4271 37.8535C46.4612 35.354 44.7944 33.1973 42.6334 31.6508C40.4725 30.1044 37.9123 29.2361 35.2703 29.1536C32.6282 29.2361 30.068 30.1044 27.9071 31.6508C25.7461 33.1973 24.0794 35.354 23.1134 37.8535L22.7646 38.6817L23.1134 39.5098C24.0794 42.0093 25.7461 44.166 27.9071 45.7125C30.068 47.2589 32.6282 48.1272 35.2703 48.2097C37.9123 48.1272 40.4725 47.2589 42.6334 45.7125C44.7944 44.166 46.4612 42.0093 47.4271 39.5098L47.7759 38.6817L47.4271 37.8535ZM35.2703 45.0337C34.0336 45.0337 32.8247 44.6612 31.7964 43.9632C30.7681 43.2652 29.9667 42.2732 29.4934 41.1125C29.0202 39.9518 28.8963 38.6746 29.1376 37.4424C29.3789 36.2102 29.9744 35.0784 30.8489 34.1901C31.7233 33.3017 32.8375 32.6967 34.0504 32.4516C35.2633 32.2066 36.5206 32.3323 37.6631 32.8131C38.8057 33.2939 39.7822 34.108 40.4693 35.1526C41.1564 36.1972 41.5231 37.4253 41.5231 38.6817C41.5212 40.3657 40.8618 41.9803 39.6896 43.1712C38.5174 44.362 36.928 45.0318 35.2703 45.0337Z" fill="white"/>
<path d="M39.96 16.4495H7.13275C6.30385 16.4486 5.50914 16.1137 4.92301 15.5183C4.33688 14.9228 4.00722 14.1155 4.00635 13.2735V6.92139C4.00722 6.07933 4.33688 5.272 4.92301 4.67657C5.50914 4.08114 6.30385 3.74624 7.13275 3.74536H39.96C40.7889 3.74624 41.5836 4.08114 42.1697 4.67657C42.7559 5.272 43.0855 6.07933 43.0864 6.92139V13.2735C43.0855 14.1155 42.7559 14.9228 42.1697 15.5183C41.5836 16.1137 40.7889 16.4486 39.96 16.4495ZM7.13275 6.92139V13.2735H39.96V6.92139H7.13275Z" fill="white"/>
<path d="M19.6384 45.0337H7.13275V38.6816H19.6384V35.5056H7.13275C6.30387 35.5066 5.50921 35.8415 4.9231 36.4369C4.33699 37.0323 4.0073 37.8396 4.00635 38.6816V45.0337C4.0073 45.8757 4.33699 46.683 4.9231 47.2784C5.50921 47.8738 6.30387 48.2088 7.13275 48.2097H19.6384V45.0337Z" fill="white"/>
<path d="M44.6495 19.6255H11.8222C10.9933 19.6265 10.1987 19.9614 9.61255 20.5568C9.02645 21.1522 8.69675 21.9595 8.6958 22.8015V29.1536C8.69675 29.9956 9.02645 30.8029 9.61255 31.3983C10.1987 31.9937 10.9933 32.3286 11.8222 32.3296H19.6382V29.1536H11.8222V22.8015H44.6495L44.6506 25.9775H47.7759V22.8015C47.7749 21.9595 47.4452 21.1522 46.8591 20.5568C46.273 19.9614 45.4783 19.6265 44.6495 19.6255Z" fill="white"/>
</g>
<defs>
<clipPath id="clip0_17_101">
<rect width="50.0225" height="50.8165" fill="white" transform="translate(0.879883 0.569336)"/>
</clipPath>
</defs>
</svg>
