<svg width="59" height="58" viewBox="0 0 59 58" fill="none" xmlns="http://www.w3.org/2000/svg">
<path d="M19.613 29.1463C24.4311 29.1463 28.0658 25.5614 28.0658 20.8092C28.0658 16.0571 24.4311 12.4722 19.613 12.4722C14.7948 12.4722 11.1601 16.0571 11.1601 20.8092C11.1601 25.5614 14.7948 29.1463 19.613 29.1463ZM22.0281 31.4045H17.1978C10.5394 31.4045 5.12231 36.7474 5.12231 43.3146V45.6966H34.1036V43.3146C34.1036 36.7474 28.6865 31.4045 22.0281 31.4045ZM49.3043 20.1899L38.9193 30.4136L35.799 27.336L32.384 30.7042L38.9193 37.1452L52.7144 23.5629L49.3043 20.1899Z" fill="white"/>
</svg>
