<svg width="59" height="59" viewBox="0 0 59 59" fill="none" xmlns="http://www.w3.org/2000/svg">
<path d="M51.3072 52.7318H46.4052V48.5091V43.494V38.4789H48.8505C49.2468 38.4789 49.5638 38.1619 49.5638 37.777V31.7996L48.9411 31.4147V33.5656C48.9411 35.309 47.526 36.7241 45.7826 36.7241C44.2203 36.7241 42.9298 35.592 42.6694 34.109C42.3864 34.2109 42.0807 34.2675 41.7524 34.2675C41.5939 34.2675 41.4241 34.2562 41.2769 34.2222C40.7901 34.6751 40.1335 34.9468 39.409 34.9468C37.892 34.9468 36.6467 33.7128 36.6467 32.1845V31.2109H25.4617C25.258 31.2335 25.0542 31.2449 24.8391 31.2449C24.5787 31.2449 24.3297 31.2222 24.0806 31.1883C22.9372 31.0184 21.9297 30.4411 21.1938 29.626H17.707C17.5598 29.626 17.4353 29.6713 17.3221 29.7392C17.1296 29.8637 17.0051 30.0788 17.0051 30.3279V37.7543C17.0051 38.1505 17.3221 38.4562 17.7183 38.4562H20.1636V43.4713V48.4864V52.7091H15.2617C14.8202 52.7091 14.4692 53.0601 14.4692 53.5016C14.4692 53.9431 14.8202 54.294 15.2617 54.294H20.9561H29.175H37.3939H45.6128H51.3072C51.7487 54.294 52.0996 53.9431 52.0996 53.5016C52.0996 53.0827 51.7373 52.7318 51.3072 52.7318ZM36.5901 39.2713V42.7015H33.2731H29.9561V39.2713H36.5901ZM21.7485 42.7015V39.2713H28.3825V42.7015H25.0655H21.7485ZM24.2731 44.2864V47.7166H21.7485V44.2864H24.2731ZM28.3825 52.7318H21.7485V49.3015H25.0655H28.3825V52.7318ZM25.858 47.7166V44.2864H29.175H32.4806V47.7166H29.1636H25.858ZM36.5901 52.7318H29.9561V49.3015H33.2731H36.5901V52.7318ZM34.0656 47.7166V44.2864H37.3826H40.6996V47.7166H37.3826H34.0656ZM44.809 52.7318H38.175V49.3015H41.492H44.809V52.7318ZM44.809 47.7166H42.2845V44.2864H44.809V47.7166ZM44.809 42.7015H41.492H38.175V39.2713H44.809V42.7015Z" fill="white"/>
<path d="M38.2202 29.6373V32.1958C38.2202 32.8411 38.7409 33.3732 39.3976 33.3732C40.0428 33.3732 40.5749 32.8524 40.5749 32.1958V31.5052C40.5749 32.1505 41.0957 32.6826 41.7523 32.6826C42.3976 32.6826 42.9296 32.1618 42.9296 31.5052V29.626H44.2089V33.5543C44.2089 34.426 44.9108 35.1279 45.7825 35.1279C46.6542 35.1279 47.3561 34.426 47.3561 33.5543V29.626H48.8618C48.9976 29.626 49.1221 29.6599 49.224 29.7279C49.2467 29.5807 49.258 29.4335 49.258 29.2864C49.258 27.5769 47.8655 26.1845 46.1561 26.1845C46.0768 26.1845 45.9863 26.1845 45.907 26.1958C45.4542 25.0637 44.3447 24.2712 43.0542 24.2712C41.3561 24.2712 39.9862 25.6411 39.9862 27.3392C39.8277 27.3052 39.6693 27.2939 39.4994 27.2939C38.1296 27.2939 36.9975 28.3014 36.8164 29.6147H38.2202V29.6373Z" fill="#C8D9FF"/>
<path d="M21.5448 25.8222C21.5222 25.9921 21.4995 26.1619 21.4995 26.343C21.4995 28.0072 22.7222 29.3996 24.3297 29.6374C24.4995 29.66 24.6693 29.6713 24.8392 29.6713C25.009 29.6713 25.1788 29.66 25.3486 29.6374C25.4052 29.626 25.4505 29.6147 25.5071 29.6147C25.5071 29.626 25.5071 29.6374 25.5184 29.6374H34.5751C34.7109 29.2072 34.7788 28.743 34.7788 28.2675C34.7788 26.2977 33.5788 24.6109 31.8694 23.8977C32.0732 23.4675 32.1864 22.9807 32.1864 22.4713C32.1864 21.6449 31.892 20.8864 31.3939 20.2977C33.1486 19.2675 34.326 17.3769 34.326 15.2033C34.326 11.9429 31.6769 9.29386 28.4165 9.29386C27.6467 9.29386 26.9109 9.44103 26.2429 9.71273C25.7335 8.35424 24.4203 7.39197 22.892 7.39197C21.058 7.39197 19.5523 8.76179 19.3372 10.5392C19.0316 10.5052 18.7146 10.4825 18.3976 10.4825C13.9825 10.4825 10.3938 14.0599 10.3938 18.4864C10.3938 22.9015 13.9712 26.4902 18.3976 26.4902C19.5071 26.4675 20.5712 26.2411 21.5448 25.8222Z" fill="white"/>
<path d="M35.8202 23.3089C36.6892 23.3089 37.3938 22.6044 37.3938 21.7353C37.3938 20.8663 36.6892 20.1617 35.8202 20.1617C34.9511 20.1617 34.2466 20.8663 34.2466 21.7353C34.2466 22.6044 34.9511 23.3089 35.8202 23.3089Z" fill="#C8D9FF"/>
<path d="M14.888 8.64852C15.9384 8.64852 16.7899 7.79701 16.7899 6.74662C16.7899 5.69623 15.9384 4.84473 14.888 4.84473C13.8376 4.84473 12.9861 5.69623 12.9861 6.74662C12.9861 7.79701 13.8376 8.64852 14.888 8.64852Z" fill="#C8D9FF"/>
<path d="M8.95595 11.8749C10.3002 11.8749 11.3899 10.7852 11.3899 9.44093C11.3899 8.09669 10.3002 7.00696 8.95595 7.00696C7.6117 7.00696 6.52197 8.09669 6.52197 9.44093C6.52197 10.7852 7.6117 11.8749 8.95595 11.8749Z" fill="#C8D9FF"/>
</svg>
